<?xml version="1.0" encoding="utf-8"?>
<!-- Generator: Adobe Illustrator 21.1.0, SVG Export Plug-In . SVG Version: 6.00 Build 0)  -->
<svg version="1.1" id="Layer_1" xmlns="http://www.w3.org/2000/svg" xmlns:xlink="http://www.w3.org/1999/xlink" x="0px" y="0px"
	 viewBox="0 0 480 120" style="enable-background:new 0 0 480 120;" xml:space="preserve">
<style type="text/css">
	.st0{fill:#3FA9F5;}
	.st1{fill:#4D4D4D;}
	.st2{fill:#FFFFFF;}
	.st3{fill:#0071BC;}
</style>
<g>
	<g id="XMLID_1_">
		<g>
			<path class="st0" d="M404.1,48.3c1,5.2-0.1,6.6-4.5,6.6c-1.4,0-2.8,0-4.2-0.1c-1.6-0.1-2.5,0.6-2.9,2.3c-0.6,2.7-0.3,3.1,2.4,3.2
				c2.2,0.1,4.4-0.4,6.5,0.7c-0.2,5.5-0.5,5.8-5.6,5.8c-0.9,0-1.9,0-2.8,0c-2.5,0-4.3,2.5-3.6,4.9c0.3,1,1.1,1.1,1.9,1.2
				c1.7,0.1,3.3,0.1,5,0.2c1.2,0,2.8,0,2.5,1.7c-0.3,1.7,0.4,4.5-2.4,4.6c-4.8,0.2-9.6,0.1-14.4,0c-2.2,0-1.8-1.7-1.5-3
				c1.8-7.6,3.6-15.1,5.4-22.7c1.5-6.1,0.5-5.5,7-5.4C396.7,48.3,400.4,48.3,404.1,48.3z"/>
			<path class="st0" d="M372.3,48c7.8,0,7.9,0,6.1,7.6c-1.6,7-3.3,14-5,21c-0.6,2.3-5,3.7-6.8,2.1c-0.8-0.8-0.3-1.8-0.1-2.6
				c1.3-5.7,2.7-11.3,4-17c0.1-0.6,0.5-1.2-0.3-2c-0.8,1.3-1.6,2.4-2.3,3.7c-3,5.3-5.9,10.7-8.9,16.1c-0.7,1.3-1.6,2.1-3.2,2.2
				c-2.2,0.1-3.2-0.6-3.3-2.9c-0.3-5.8-0.7-11.6-1.1-17.4c0-0.6,0.1-1.3-0.9-2c-2.1,6.5-3.1,13.1-4.8,19.5c-0.4,1.6-1.1,2.6-2.9,2.7
				c-4.6,0.2-4.8,0.1-3.8-4.4c1.9-8.1,4.1-16.1,6-24.2c0.4-1.8,1.4-2.3,3.1-2.4c7.5-0.2,7.5-0.2,8.4,7.2c0.4,3.2,0.5,6.4,0.8,9.7
				c0.1,1.2,0.1,2.3,1.2,3.7c1.8-3.2,3.5-6.1,5.1-8.9c1.7-3.1,3.5-6.1,5.1-9.2C369.4,48.6,370.5,48,372.3,48z"/>
			<path class="st1" d="M376.8,96.3c1.4,0,1.5,0.9,1.3,2.1c-1.6,7.9-13.2,13.3-20.3,9.6c-4.5-2.3-6.1-7.3-4-12.4
				c2.7-6.7,10.4-10.8,17.5-9.3c3.8,0.8,6.5,3.4,7,7.2c-1.1,0.2-2.2,0.4-3.2,0.4c-1.5,0-2.9-0.4-4.3-1.6c-2.5-2.2-5.8-1.9-8.6,0.5
				c-2.9,2.4-4,6.1-2.6,8.9c1,2,2.8,2.7,4.8,2.7c2.3,0,4.6-0.6,5.8-3.2c-1.4-0.8-2.7-0.4-3.8-0.6c-1-0.1-2.2,0.1-2.1-1.5
				c0.1-1.3,0.3-2.7,2-2.8c2.9,0,5.8,0,8.7,0C375.5,96.2,376.2,96.2,376.8,96.3z"/>
			<path class="st1" d="M340.5,86c2.9,0,3.3,0.3,2.6,3.1c-1.3,5.6-2.7,11.1-4,16.7c-0.3,1.4-0.8,2.5-2.4,2.5c-1.7,0-3.3,0.3-4.1-1.8
				c-1-2.8-2.2-5.5-3.3-8.2c-0.4-0.9-0.5-2-1.8-2.5c-1.5,3.2-1.6,6.8-2.7,10.1c-0.4,1.3-0.8,2.4-2.5,2.3c-2.9-0.1-3.4-0.6-2.7-3.5
				c1.3-5.4,2.7-10.8,4-16.1c0.4-1.5,0.8-2.7,2.8-2.7c1.8,0,3.2,0.2,3.9,2.2c1.1,3.2,2.5,6.3,3.8,9.5c0.2,0.6,0.3,1.3,1.4,1.6
				c0.9-3.6,1.7-7.2,2.5-10.8C338.1,87,338.7,86,340.5,86z"/>
			<path class="st0" d="M334.4,47.9c4.2,0,4.3,0,3.3,3.8c-2,8.1-4,16.1-6.1,24.2c-0.7,2.6-5.6,4.2-7.6,2.5c-0.8-0.7-0.6-1.5-0.4-2.3
				c2.2-8.8,4.4-17.6,6.6-26.3C330.9,47.2,333,48,334.4,47.9z"/>
			<path class="st0" d="M325.8,47.9c0.3,4.9-0.3,5.8-4.6,6.1c-2.2,0.2-3.3,1.1-3.8,3.2c-1.1,5.2-2.4,10.4-3.7,15.6
				c-1.3,5.7-2.2,6.2-8.5,5.1c-0.2-2.9,1-5.4,1.5-8c0.9-4.2,2-8.3,3-12.4c0.6-2.4,0-3.7-2.8-3.6c-1,0-2.6,0.3-2.4-1.4
				c0.2-1.7-0.2-4.3,2.1-4.6C313,47,319.4,48.1,325.8,47.9z"/>
			<path class="st1" d="M311.2,86c-0.5,2.5-1,5-1.6,7.5c-0.8,3.4-1.8,6.8-2.7,10.2c-1.2,4.7-1.5,4.9-6.8,3.8
				c0.7-4.9,2.3-9.4,3.3-14.1c0.3-1.3,0.7-2.5,1-3.7C305.4,85.1,306.1,84.8,311.2,86z"/>
			<path class="st1" d="M302.1,47.2c0.4,2.2-0.4,3.7-0.8,5.2c-0.3,1.3-1.1,1.8-2.4,1.8c-1.6-0.1-3.1,0-4.7-0.1
				c-3.8-0.1-4.4,0.6-4.4,4.7c2.3,0.6,4.7,0.2,7.1,0.3c1.7,0.1,2.2,0.7,1.9,2.4c-1,4.6-0.9,4.7-5.8,4.6c-0.5,0-0.9,0-1.4,0
				c-4.6,0-4.8,0.2-5,5.4c3,0,6,0,8.9,0c1.2,4.7-0.6,7.2-4.8,7.1c-4.1,0-8.1-0.1-12.2-0.1c-1.9,0-2.4-0.8-1.9-2.6
				c2.4-8.9,4.8-17.8,7.2-26.8c0.3-1,0.6-2,2-2C291.1,47.2,296.5,47.2,302.1,47.2z"/>
			<path class="st1" d="M294,85.2c0.2,4.2-0.2,4.9-3.2,5.1c-1.6,0.1-2.2,0.9-2.6,2.3c-1.1,4.2-2.2,8.4-3.3,12.6
				c-0.6,2.4-3.5,3.5-5.6,2.3c-1.1-0.7-0.6-1.6-0.4-2.4c1-3.9,2-7.9,3-11.8c0.2-0.9,0.7-1.7,0.2-2.7c-1-0.9-2.4-0.1-3.4-0.9
				c0-4.1,0.5-4.5,4.4-4.5C286.8,85.2,290.4,85.2,294,85.2z"/>
			<path class="st1" d="M277.6,47.5c0,0.4,0.1,0.8,0,1.1c-2.4,9.3-4.9,18.6-7.3,27.9c-0.3,1.1-0.8,1.9-2,1.8c-1.9-0.2-4,0.7-5.6-0.7
				c-0.7-0.6,0-1.8,0.3-2.6c1.6-6,3.3-11.9,5-18.2c-1.1,0.4-1.2,1.1-1.6,1.6c-3.4,5.9-6.8,11.7-10,17.6c-1.2,2.2-2.9,2.3-4.9,2.1
				c-2.2-0.2-2.1-2.2-2.2-3.6c-0.2-4.9-0.3-9.8-0.5-14.7c0-1,0.2-2-0.7-3.2c-1.2,4.6-2.3,8.8-3.4,13.1c-0.3,1.1-0.5,2.2-0.9,3.2
				c-1.7,5.6-2.9,6.2-9.1,4.6c1.7-6.2,3.4-12.5,5.1-18.7c0.9-3.3,1.9-6.6,2.7-9.9c0.4-1.6,1.1-2.4,2.9-2.2c1.9,0.1,3.9,0.2,5.8,0
				c2.2-0.2,2.9,0.8,3,2.8c0.1,4.7,0.4,9.4,0.7,14.1c0,0.7,0.2,1.4,0.3,2.2c0.2,0.1,0.4,0.1,0.7,0.2c2.7-4.5,5.7-8.8,7.9-13.5
				c2.2-4.6,5.2-6.5,10.2-5.6C275.2,47.1,276.4,46.9,277.6,47.5z"/>
			<path class="st1" d="M264.5,85c3.5-0.4,4.2,0.2,3.3,3.7c-1.4,5.4-2.9,10.7-4.3,16.1c-0.4,1.4-0.8,2.6-2.7,2.6
				c-1.8,0-3.4,0.1-4.2-2.2c-1.2-3.5-2.7-6.9-4.2-10.8c-1.9,3.6-2,7.3-3.2,10.5c-0.4,1.2-0.8,2.1-2.4,2.2c-3.7,0.3-4.1-0.2-3.1-3.8
				c1.5-5.3,3-10.7,4.4-16.1c0.4-1.4,0.7-2.7,2.6-2.6c1.8,0.1,3.4,0.1,4.2,2.3c1.2,3.6,2.7,7.2,4.1,10.8c0.2,0,0.4,0,0.6,0
				c0.9-3.5,1.7-6.9,2.6-10.4C262.6,86.3,262.9,85.2,264.5,85z"/>
			<path class="st1" d="M232.3,46.6c1.4,0.2,3-0.2,4.3,0.5c0.4,1,0,1.9-0.2,2.8c-2.3,8.4-4.7,16.7-6.9,25.2
				c-0.6,2.2-1.6,3.1-3.8,2.9c-1.6-0.1-3.3,0.1-5-0.4c-0.1-2.5,0.9-4.7,1.4-6.8c1.8-6.9,3.9-13.7,5.6-20.6
				C228.4,47.4,229.5,46.2,232.3,46.6z"/>
			<path class="st1" d="M235.2,84.7c1.9,0.8,0.7,2.2,0.4,3.3c-1.4,5-2.8,10-4.1,15c-1.2,4.4-1.8,4.8-6.9,3.5
				c1.2-4.6,2.4-9.1,3.6-13.5c0.6-2.2,1.2-4.4,2-6.6C230.6,84.7,233.3,83.9,235.2,84.7z"/>
			<path class="st1" d="M215.6,46.6c4.2,0.9,6.4,3.5,6.2,7.9c-0.3,5.6-3.3,9.5-8.3,11.8c-0.7,0.3-1.6,0.4-2.2,1.3
				c1,3.3,3.5,6.1,4.5,9.8c-2.9,0.6-5.6,0.5-8.2,0.3c-1.2-0.1-1.5-1.2-1.9-2.1c-1.2-2.3-1.9-4.8-3.6-7c-1.2,1.9-1.6,3.9-2,5.9
				c-0.5,2.4-1.6,3.3-4.2,3.3c-5.4-0.2-5.4,0-3.9-5.1c2.2-7.7,4.5-15.3,6.5-23c0.7-2.9,2.1-3.9,5-3.7
				C207.5,46.4,211.6,45.8,215.6,46.6z M212.6,57.4c0.4-1.7-0.2-3-1.9-3.5c-1.7-0.4-3.8-1.4-4.9,0.8c-0.9,1.9-1.6,4.1-1.5,6.5
				C208.9,62.1,211.9,60.6,212.6,57.4z"/>
			<path class="st1" d="M213.3,103.4c0.1,1.1,1,3-0.9,3.2c-1.8,0.2-4.3,1.4-5.2-1.4c-0.4-1.3-1.1-1.7-2.4-1.7
				c-2.7,0.2-5.5-0.9-7.6,2.3c-1.2,1.7-3.8,0.8-6.2,0.6c0.7-2.4,2.2-3.9,3.4-5.6c3.4-4.8,6.9-9.6,10.2-14.5c1.3-1.8,2.9-2.2,4.8-1.8
				c2,0.4,1.7,2.2,1.9,3.5C211.9,93.1,212.6,98.2,213.3,103.4z M202.6,98.3c3.8,0.8,4.5-0.4,3.2-5.6
				C204.4,94.4,203.3,96.1,202.6,98.3z"/>
			<path class="st2" d="M210.7,54c1.6,0.4,2.3,1.7,1.9,3.5c-0.7,3.1-3.7,4.6-8.2,3.8c-0.1-2.4,0.6-4.5,1.5-6.5
				C206.9,52.5,209.1,53.6,210.7,54z"/>
			<path class="st2" d="M205.9,92.7c1.3,5.2,0.6,6.4-3.2,5.6C203.3,96.1,204.4,94.4,205.9,92.7z"/>
			<path class="st1" d="M183.7,84.3c3.8,0.4,5.4,2.9,4.8,6.6c-0.9,4.8-5.1,8.3-10.6,8.3c-2.7,0-4,0.8-4.6,3.5c-1,4-1.6,4.2-5.9,3
				c-0.5-1.2,0.1-2.4,0.4-3.5c1.5-5.3,3.2-10.6,4.6-15.9c0.5-1.7,1.3-2.5,3.1-2.4C178.2,84,180.9,84,183.7,84.3z M182,92.7
				c0.7-0.8,1-1.9,0.2-2.8c-1.1-1.3-2.8-1.3-4.1-0.8c-2.1,0.7-1.8,2.8-2.1,4.7C178.4,94.4,180.4,94.5,182,92.7z"/>
			<path class="st2" d="M184.9,55.9c0.2,2.6-2.6,4.5-6.3,4.3c-1,0-2.4,0.3-2.4-1.5c0-3.5,1.5-5.5,4.5-5.5
				C182.3,53.5,184.7,53.1,184.9,55.9z"/>
			<path class="st2" d="M182.3,89.9c0.7,0.9,0.5,2-0.2,2.8c-1.6,1.8-3.7,1.7-5.9,1.1c0.3-1.9,0-4,2.1-4.7
				C179.5,88.6,181.2,88.6,182.3,89.9z"/>
			<path class="st1" d="M176.2,58.7c0,1.8,1.4,1.4,2.4,1.5c3.7,0.2,6.5-1.7,6.3-4.3c-0.2-2.8-2.6-2.3-4.2-2.6
				C177.8,53.1,176.2,55.2,176.2,58.7z M185.8,46.2c6.2,0.5,9,4.5,7.4,10.5c-1.6,6.1-6.9,10.2-13.4,10.7c-6.4,0.4-6.4,0.4-8.2,6.4
				c-0.9,3.1-4.9,4.8-7.8,3.3c-1.4-0.7-0.8-1.9-0.5-2.9c1.4-4.9,2.9-9.8,4.3-14.6c1.1-3.7,2.3-7.4,3.3-11.2c0.5-1.8,1.4-2.6,3.3-2.5
				c1.8,0.1,3.7,0,5.6,0C181.7,46,183.7,46,185.8,46.2z"/>
			<path class="st1" d="M169.8,12.9c0.8-0.1,1.5,0.3,1.4,1.2c-0.1,1.2-0.9,1.9-2.1,2c-0.9-0.1-1.6-0.4-1.5-1.3
				C167.7,13.6,168.6,12.9,169.8,12.9z"/>
			<path class="st1" d="M159.2,19c-0.5-0.5-0.8-0.5-1.1-0.3l-1.5-2.2c2.2-1.5,4.5-3,6.8-4.6c3.2-2.2,6.8-3.4,10.5-4
				c1.5-0.2,3.3-0.5,4.3,1c1,1.6,0.2,3.2-0.9,4.6c-1.2,1.6-2.5,3.3-4.1,4.5c-7.7,5.5-16.5,8.9-25,13.2
				C151.3,26.5,155.6,23.1,159.2,19z M171.2,14.1c0.1-0.9-0.6-1.3-1.4-1.2c-1.2,0.1-2.1,0.8-2.2,2c-0.1,0.9,0.6,1.2,1.5,1.3
				C170.3,16,171.1,15.4,171.2,14.1z"/>
			<path class="st3" d="M139,88.5c-0.2-2.4,0-2.6,2.6-2.1C141.2,87.9,140.5,88.7,139,88.5z"/>
			<path class="st3" d="M131.1,92.4c-2.6,2.8-6.5,3.3-9.6,5.2C124.2,95,127.2,92.9,131.1,92.4z"/>
			<path class="st3" d="M121.2,97.8c0.1-0.1,0.2-0.1,0.3-0.2C121.4,97.7,121.3,97.8,121.2,97.8L121.2,97.8z"/>
			<path class="st3" d="M121.2,97.8L121.2,97.8c0,0.1-0.1,0.1-0.1,0.1C121.1,97.9,121.2,97.8,121.2,97.8z"/>
			<path class="st1" d="M144,24.9c4.2-2.7,8.5-5.5,12.6-8.3l1.5,2.2c0,0-0.1,0.1-0.1,0.1c-7.5,6.2-14.4,13-19.6,21.4
				c-1.6,2.7-2.6,5.5-2.6,8.7c0,1.8-0.7,3-2.2,3.9c-3.8,2.2-7.7,4.5-11.5,6.7c-1.8,1-2.8,0.6-3.7-1.2c-3.7-6.8-7.5-13.6-11.2-20.4
				c-0.5-1-1.7-2.3,0-3.1c1.5-0.7,2,0.8,2.7,1.7c0.5,0.7,0.7,1.7,1.7,2.2c0.5-1.4-0.6-2.2-1.2-3.2c-0.9-1.8-0.1-2.7,1.3-3.6
				c1.5-0.9,2.7-1,3.7,0.7c1,1.6,1.9,3.3,3.1,4.9c0.1-1.9-1.5-3.1-1.9-4.8c-0.3-1-1.6-2.3-0.1-3.2c1.3-0.8,1.8,0.8,2.5,1.6
				c0.2,0.2,0.4,0.3,1,0.8c-0.5-1.9-1.8-3.7,0.3-5c1.9-1.2,3.5-0.4,5.2,0.5C132.2,30.3,138.3,28.5,144,24.9z"/>
			<path class="st3" d="M112.8,96.2c0.1,2.2-0.6,3-3.3,3.6C109.6,97.6,110.7,96.4,112.8,96.2z"/>
			<path class="st0" d="M115,101.4c2-1.1,3.8-2.8,6.1-3.5c-10.7,9.3-22.7,15.3-37.4,14.2c-7.4-0.5-8.4-1.7-7.6-9.6
				c1.8-0.5,3.8-0.3,5.6-1c4.7-1.8,7.8-5.3,9.8-9.7c1.5-3.3,2.9-6.5,4-10l1.7,0.3c-1.2,3.6-2.1,7.3-2.3,11.1c0,0.7-0.1,1.5,0,2.2
				c0.1,1,0.2,2.1,1.2,2.6c1.2,0.5,2.2,0.1,3.1-0.7c1.1-1,2.1-2.1,3.3-3c0.8-0.7,1.4-1.7,2.9-1.7c-0.2,1.3-1.5,1.6-2.2,2.3
				c-3.1,3.4-2.1,6.8,2.3,7.9C108.8,103.8,111.9,103,115,101.4z"/>
			<path class="st0" d="M97.2,73.6c0.3-2.8,0-5.5-1-8.2c-2.1-5.3-4.3-10.7-8.1-15.1c-1.6-1.9-1.4-3.6,0.7-4.9
				c4-2.5,8.1-4.8,12.2-7.2c1.7-1,3.1-0.8,4.1,1.1c3.6,6.7,7.3,13.3,10.9,20c1.1,2,0.6,3.2-1.3,4.3c-3.6,2-7.2,4.2-10.8,6.3
				c-1.7,0.9-3.1,2.1-3.8,3.9c-1.1,2.8-2.1,5.5-3,8.3l-1.7-0.3C96.3,79.1,96.9,76.4,97.2,73.6z"/>
			<path class="st3" d="M82.3,92.7c-0.2,1.2-0.8,1.8-1.8,1.9c-0.8,0.1-1.3-0.3-1.2-1.1c0.1-1,0.7-1.7,1.8-1.8
				C81.8,91.7,82.3,92.1,82.3,92.7z"/>
			<path class="st3" d="M78.8,81.2c1,1.9,1.2,3.9,0.4,6c-2.8-0.7-4.4-3.8-3.1-6.1C76.9,79.7,78.1,79.9,78.8,81.2z"/>
		</g>
		<g>
		</g>
	</g>
</g>
</svg>
